<?xml version="1.0" encoding="UTF-8" standalone="no"?>
<!-- Created with Inkscape (http://www.inkscape.org/) -->

<svg
   xmlns:dc="http://purl.org/dc/elements/1.1/"
   xmlns:cc="http://creativecommons.org/ns#"
   xmlns:rdf="http://www.w3.org/1999/02/22-rdf-syntax-ns#"
   xmlns:svg="http://www.w3.org/2000/svg"
   xmlns="http://www.w3.org/2000/svg"
   xmlns:sodipodi="http://sodipodi.sourceforge.net/DTD/sodipodi-0.dtd"
   xmlns:inkscape="http://www.inkscape.org/namespaces/inkscape"
   width="25.984604mm"
   height="25.984604mm"
   viewBox="0 0 92.07143 92.07143"
   id="svg6058"
   version="1.1"
   inkscape:version="0.91 r"
   sodipodi:docname="amo_icon.svg">
  <defs
     id="defs6060">
    <radialGradient
       fx="0"
       fy="0"
       cx="0"
       cy="0"
       r="0.5"
       gradientUnits="userSpaceOnUse"
       gradientTransform="matrix(0.75289,0.02896,0.02348,-0.61436,418.0424,508.7004)"
       spreadMethod="pad"
       id="radialGradient448">
      <stop
         style="stop-opacity:1;stop-color:#ffffff"
         offset="0"
         id="stop450" />
      <stop
         style="stop-opacity:1;stop-color:#ffe680"
         offset="1"
         id="stop452" />
    </radialGradient>
    <radialGradient
       fx="0"
       fy="0"
       cx="0"
       cy="0"
       r="0.5"
       gradientUnits="userSpaceOnUse"
       gradientTransform="matrix(1.01402,-2.00505,-7.72211,-4.25133,426.7035,507.3348)"
       spreadMethod="pad"
       id="radialGradient348">
      <stop
         style="stop-opacity:1;stop-color:#808080"
         offset="0"
         id="stop350" />
      <stop
         style="stop-opacity:1;stop-color:#b3b3b3"
         offset="1"
         id="stop352" />
    </radialGradient>
    <radialGradient
       fx="0"
       fy="0"
       cx="0"
       cy="0"
       r="0.5"
       gradientUnits="userSpaceOnUse"
       gradientTransform="matrix(1.56873,0.16969,0.21105,-1.57818,424.7607,512.4933)"
       spreadMethod="pad"
       id="radialGradient330">
      <stop
         style="stop-opacity:1;stop-color:#ffffff"
         offset="0"
         id="stop332" />
      <stop
         style="stop-opacity:1;stop-color:#b3b3b3"
         offset="1"
         id="stop334" />
    </radialGradient>
    <radialGradient
       fx="0"
       fy="0"
       cx="0"
       cy="0"
       r="0.5"
       gradientUnits="userSpaceOnUse"
       gradientTransform="matrix(4.50052,1.59581,0.79939,-2.26918,424.6863,514.1882)"
       spreadMethod="pad"
       id="radialGradient312">
      <stop
         style="stop-opacity:1;stop-color:#ffffff"
         offset="0"
         id="stop314" />
      <stop
         style="stop-opacity:1;stop-color:#b3b3b3"
         offset="1"
         id="stop316" />
    </radialGradient>
    <radialGradient
       fx="0"
       fy="0"
       cx="0"
       cy="0"
       r="0.5"
       gradientUnits="userSpaceOnUse"
       gradientTransform="matrix(6.46668,1.14564,0.46233,-2.88133,422.8904,516.2314)"
       spreadMethod="pad"
       id="radialGradient294">
      <stop
         style="stop-opacity:1;stop-color:#ffffff"
         offset="0"
         id="stop296" />
      <stop
         style="stop-opacity:1;stop-color:#b3b3b3"
         offset="1"
         id="stop298" />
    </radialGradient>
  </defs>
  <sodipodi:namedview
     id="base"
     pagecolor="#ffffff"
     bordercolor="#666666"
     borderopacity="1.0"
     inkscape:pageopacity="0.0"
     inkscape:pageshadow="2"
     inkscape:zoom="1.979899"
     inkscape:cx="40.700832"
     inkscape:cy="81.325177"
     inkscape:document-units="px"
     inkscape:current-layer="layer1"
     showgrid="false"
     fit-margin-top="0"
     fit-margin-left="0"
     fit-margin-right="0"
     fit-margin-bottom="0"
     inkscape:window-width="1600"
     inkscape:window-height="848"
     inkscape:window-x="0"
     inkscape:window-y="0"
     inkscape:window-maximized="1" />
  <metadata
     id="metadata6063">
    <rdf:RDF>
      <cc:Work
         rdf:about="">
        <dc:format>image/svg+xml</dc:format>
        <dc:type
           rdf:resource="http://purl.org/dc/dcmitype/StillImage" />
        <dc:title></dc:title>
      </cc:Work>
    </rdf:RDF>
  </metadata>
  <g
     inkscape:label="Layer 1"
     inkscape:groupmode="layer"
     id="layer1"
     transform="translate(87.756767,-253.23735)">
    <circle
       style="color:#000000;clip-rule:nonzero;display:inline;overflow:visible;visibility:visible;opacity:1;isolation:auto;mix-blend-mode:normal;color-interpolation:sRGB;color-interpolation-filters:linearRGB;solid-color:#000000;solid-opacity:1;fill:#97d3e3;fill-opacity:0.50196078;fill-rule:nonzero;stroke:#000000;stroke-width:0.68237168;stroke-linecap:butt;stroke-linejoin:miter;stroke-miterlimit:4;stroke-dasharray:none;stroke-dashoffset:0;stroke-opacity:1;color-rendering:auto;image-rendering:auto;shape-rendering:auto;text-rendering:auto;enable-background:accumulate"
       id="path4520"
       cx="-41.721081"
       cy="299.27307"
       r="45.69453" />
    <g
       id="g4448"
       transform="translate(-249.50768,8.0812203)">
      <g
         id="g284"
         transform="matrix(3.4162892,0,0,-3.4162892,-1223.9789,2029.1639)">
        <g
           id="g286">
          <g
             id="g292">
            <path
               inkscape:connector-curvature="0"
               id="path300"
               style="fill:url(#radialGradient294);fill-rule:evenodd;stroke:none"
               d="m 425.2346,517.0839 -0.0227,0 c -2.0928,0 -4.464,-1.2785 -5.0879,-3.1723 -0.5369,-1.6251 0.1559,-3.8131 1.529,-4.9467 l 0,0 -0.015,-0.017 c 0.001,0 0.001,0 0.005,-0.004 l 0,0 -2.8432,-3.0651 c 1.0432,-0.5666 1.4842,-0.864 2.9472,-1.0769 l 0,0 c 2.9548,-0.4206 7.3539,2.0753 8.346,4.9301 l 0,0 c 0.8859,2.5457 -0.8991,6.2532 -3.492,7.1362 l 0,0 c -0.4243,0.1445 -0.8883,0.2134 -1.3665,0.216 z m -6.3956,-11.1493 2.799,3.0133 c -0.1061,0.0771 -0.207,0.1579 -0.307,0.2426 l 0,0 -2.492,-3.2559 z" />
          </g>
        </g>
      </g>
      <g
         id="g302"
         transform="matrix(3.4162892,0,0,-3.4162892,-1223.9789,2029.1639)">
        <g
           id="g304">
          <g
             id="g310">
            <path
               inkscape:connector-curvature="0"
               id="path318"
               style="fill:url(#radialGradient312);fill-rule:evenodd;stroke:none"
               d="m 424.8958,514.5525 -0.002,0 -0.003,0 -0.002,0 -0.003,0 -0.003,0 -0.003,0 -0.002,0 -0.003,0 -0.003,0 -0.003,0 -0.002,0 -0.003,0 -0.003,0 -0.002,0 -0.004,0 -0.004,0 -0.004,0 -0.004,0 -0.004,0 -0.004,0 -0.004,0 -0.004,0 -0.004,0 -0.004,0 -0.0255,-5e-4 c -0.1562,0 -0.313,-0.0165 -0.4652,-0.0462 l 0,0 c -0.0349,-0.008 -0.074,-0.0221 -0.112,-0.0272 l 0,0 c -0.0399,-0.0128 -0.0748,-0.0227 -0.1139,-0.0326 l 0,0 c -0.11,-0.0355 -0.218,-0.074 -0.3209,-0.1202 l 0,0 c -0.068,-0.0349 -0.14,-0.0709 -0.2072,-0.1063 l 0,0 c -0.0309,-0.0187 -0.0618,-0.0428 -0.095,-0.063 l 0,0 c -0.1618,-0.106 -0.3109,-0.2256 -0.4399,-0.3671 l 0,0 c -0.0269,-0.0269 -0.051,-0.0566 -0.0729,-0.0895 l 0,0 c -0.0252,-0.0272 -0.0482,-0.057 -0.072,-0.0905 l 0,0 c -0.045,-0.0617 -0.089,-0.1255 -0.127,-0.197 l 0,0 c -0.0212,-0.0289 -0.0402,-0.0637 -0.0561,-0.0997 l 0,0 c -0.0201,-0.036 -0.034,-0.0709 -0.051,-0.1069 l 0,0 c -0.0459,-0.108 -0.0899,-0.2254 -0.1171,-0.3433 l 0,0 c -0.008,-0.0297 -0.0159,-0.0621 -0.019,-0.0915 l 0,0 c -0.008,-0.0281 -0.0119,-0.0616 -0.0158,-0.0905 l 0,0 c -0.004,-0.0328 -0.008,-0.0626 -0.01,-0.0961 l 0,0 c -0.0141,-0.1184 -0.0141,-0.2386 0,-0.3605 l 0,0 c 0.002,-0.0309 0.006,-0.0632 0.01,-0.093 l 0,0 c 0.0158,-0.1225 0.0439,-0.2404 0.0819,-0.3575 l 0,0 c 0.019,-0.0566 0.0391,-0.1116 0.0621,-0.1658 l 0,0 c 0.0249,-0.0578 0.053,-0.1131 0.079,-0.1669 l 0,0 c 0.0148,-0.0207 0.0318,-0.0479 0.046,-0.0732 l 0,0 c 0.047,-0.0796 0.1029,-0.1516 0.157,-0.2231 l 0,0 c 0.019,-0.019 0.0428,-0.0408 0.0618,-0.0654 l 0,0 c 0.0641,-0.0621 0.125,-0.125 0.199,-0.18 l 0,0 c 0.0901,-0.0703 0.193,-0.1336 0.301,-0.1795 l 0,0 -0.758,-2.357 c 0.0292,-0.009 0.057,-0.0178 0.0831,-0.0261 l 0,0 c 0.0281,-0.009 0.0541,-0.0119 0.0819,-0.0195 l 0,0 c 0.0581,-0.0165 0.1131,-0.0269 0.1712,-0.038 l 0,0 c 0.055,-0.015 0.1129,-0.0193 0.1718,-0.0269 l 0,0 c 0.1721,-0.019 0.3492,-0.0272 0.527,-0.0241 l 0,0 c 0.2931,0.01 0.5941,0.0587 0.8872,0.1409 l 0,0 c 0.0598,0.013 0.1168,0.0348 0.1718,0.0541 l 0,0 c 0.2931,0.093 0.574,0.2185 0.8402,0.3728 l 0,0 c 0.265,0.1578 0.5159,0.341 0.7418,0.5451 l 0,0 c 0.176,0.1661 0.3402,0.3446 0.4802,0.54 l 0,0 c 0.036,0.049 0.072,0.0978 0.104,0.1471 l 0,0 c 0.116,0.1769 0.2129,0.36 0.2869,0.5499 l 0,0 c 0.0119,0.0261 0.0241,0.0539 0.0309,0.0796 l 0,0 c 0.0122,0.0324 0.0241,0.0596 0.0332,0.0862 l 0,0 c 0.006,0.0284 0.0178,0.0553 0.026,0.0819 l 0,0 c 0.0428,0.1384 0.074,0.281 0.095,0.425 l 0,0 c 0.0258,0.1902 0.038,0.3841 0.0258,0.5692 l 0,0 c 0,0.0518 -0.004,0.0992 -0.008,0.144 l 0,0 c -0.004,0.0498 -0.0111,0.0958 -0.0139,0.1428 l 0,0 c -0.008,0.0454 -0.017,0.0902 -0.025,0.1415 l 0,0 c -0.0232,0.1355 -0.0621,0.2727 -0.1051,0.4059 l 0,0 c -0.0899,0.269 -0.2149,0.523 -0.3739,0.7486 l 0,0 c -0.0562,0.0794 -0.1111,0.1534 -0.1732,0.2234 l 0,0 c -0.1208,0.1417 -0.254,0.2715 -0.4059,0.3866 l 0,0 c -0.0749,0.0573 -0.1489,0.1095 -0.2311,0.161 l 0,0 c -0.0388,0.0273 -0.0799,0.0494 -0.125,0.0735 l 0,0 c -0.0819,0.0439 -0.1709,0.0839 -0.2608,0.1199 l 0,0 c -0.0901,0.0345 -0.1842,0.0705 -0.282,0.0989 l 0,0 c -0.074,0.0179 -0.1511,0.04 -0.2302,0.0507 l 0,0 c -0.038,0.008 -0.0779,0.0114 -0.1179,0.019 l 0,0 c -0.0391,0.002 -0.078,0.008 -0.1171,0.01 l 0,0 c -0.0431,0.005 -0.0864,0.007 -0.1301,0.007" />
          </g>
        </g>
      </g>
      <g
         id="g320"
         transform="matrix(3.4162892,0,0,-3.4162892,-1223.9789,2029.1639)">
        <g
           id="g322">
          <g
             id="g328">
            <path
               inkscape:connector-curvature="0"
               id="path336"
               style="fill:url(#radialGradient330);fill-rule:evenodd;stroke:none"
               d="m 425.5461,511.717 0,0.003 0,0.002 0,0.002 0,0.003 0,0.002 0,0.002 c -0.001,0.381 -0.26,0.8249 -0.6681,0.8249 l -0.003,0 -0.003,0 -0.003,0 -0.003,0 -0.002,0 -0.003,0 c -0.026,-10e-4 -0.0532,-0.003 -0.081,-0.008 l 0,0 c -0.127,-0.021 -0.3209,-0.1919 -0.3229,-0.3339 l 0,0 c 0,-0.0601 0.034,-0.114 0.1199,-0.15 l 0,0 -0.6128,-1.4502 c 0.695,-0.1312 1.508,0.2832 1.5789,1.0417 l 0,0 0.003,0.0615 z" />
          </g>
        </g>
      </g>
      <g
         id="g338"
         transform="matrix(3.4162892,0,0,-3.4162892,-1223.9789,2029.1639)">
        <g
           id="g340">
          <g
             id="g346">
            <path
               inkscape:connector-curvature="0"
               id="path354"
               style="fill:url(#radialGradient348);fill-rule:evenodd;stroke:none"
               d="m 428.6279,512.9538 c 0,-2.6802 -2.1719,-4.8509 -4.8529,-4.8509 l 0,0 c -0.8501,0 -1.6509,0.214 -2.3451,0.6006 l 0,0 -2.6728,-2.882 c 1.0468,-0.5709 1.4879,-0.864 2.9529,-1.0749 l 0,0 c 2.9531,-0.4217 7.3479,2.0702 8.344,4.9301 l 0,0 c 0.851,2.4412 -0.758,5.9487 -3.1799,7.0117 1.0698,-0.8906 1.7538,-2.2339 1.7538,-3.7346 z m -9.828,-7.0778 2.63,2.8275 c -0.112,0.063 -0.216,0.1265 -0.3189,0.1925 l 0,0 -2.3111,-3.02 z" />
          </g>
        </g>
      </g>
      <path
         inkscape:connector-curvature="0"
         id="path356"
         style="fill:none;stroke:#000000;stroke-width:0.73791856;stroke-linecap:butt;stroke-linejoin:miter;stroke-miterlimit:4;stroke-dasharray:none;stroke-opacity:1"
         d="m 226.16551,280.01836 c -1.00027,-0.42718 0.0685,-1.54852 0.69337,-1.65704 1.68136,-0.28096 2.73658,1.58434 2.60404,3.04268 -0.23779,2.59148 -3.01673,4.01893 -5.39091,3.5636 -3.48543,-0.66631 -5.3264,-4.44499 -4.51306,-7.74131 1.06944,-4.3753 5.88614,-6.62978 10.07806,-5.46963 5.27119,1.48078 7.96625,7.32591 6.42918,12.42165 -1.86503,6.18157 -9.84547,10.33086 -15.83791,8.42129 -1.80409,-0.57448 -3.41657,-1.63955 -4.89925,-2.88199 l -8.51311,11.11524 m 19.34959,-20.81449 c -1.00027,-0.42718 0.0685,-1.54852 0.69337,-1.65704 1.68136,-0.28096 2.73658,1.58434 2.60404,3.04268 -0.23779,2.59148 -3.01673,4.01893 -5.39091,3.5636 -3.48543,-0.66631 -5.3264,-4.44499 -4.51306,-7.74131 1.06944,-4.3753 5.88614,-6.62978 10.07806,-5.46963 5.27119,1.48078 7.96625,7.32591 6.42918,12.42165 -1.86503,6.18157 -9.84547,10.33086 -15.83791,8.42129 -7.075,-2.23972 -11.3041,-12.11773 -9.01873,-19.01561 2.62726,-7.96598 14.31396,-12.75835 22.12388,-10.10129 8.8583,3.01781 14.96007,15.68133 11.92969,24.38357 -3.38924,9.75144 -18.4179,18.27904 -28.50279,16.8382 -5.00746,-0.72043 -6.51445,-1.73521 -10.09172,-3.67019" />
      <path
         inkscape:connector-curvature="0"
         id="path358"
         style="fill:none;stroke:#000000;stroke-width:0.73791856;stroke-linecap:butt;stroke-linejoin:miter;stroke-miterlimit:4;stroke-dasharray:none;stroke-opacity:1"
         d="m 211.92696,284.66289 c 6.88724,-0.0711 7.75497,-3.10883 7.75497,-3.15449" />
      <path
         inkscape:connector-curvature="0"
         id="path360"
         style="fill:none;stroke:#000000;stroke-width:0.73791856;stroke-linecap:butt;stroke-linejoin:miter;stroke-miterlimit:4;stroke-dasharray:none;stroke-opacity:1"
         d="m 210.485,279.08092 c 2.976,0.19136 5.952,0.21318 8.92691,-0.5436" />
      <path
         inkscape:connector-curvature="0"
         id="path362"
         style="fill:none;stroke:#000000;stroke-width:0.73791856;stroke-linecap:butt;stroke-linejoin:miter;stroke-miterlimit:4;stroke-dasharray:none;stroke-opacity:1"
         d="m 212.01988,271.5979 c 3.10965,4.09544 8.0865,3.84264 8.20647,3.96289" />
      <path
         inkscape:connector-curvature="0"
         id="path364"
         style="fill:none;stroke:#000000;stroke-width:0.73791856;stroke-linecap:butt;stroke-linejoin:miter;stroke-miterlimit:4;stroke-dasharray:none;stroke-opacity:1"
         d="m 218.33237,265.64644 c 0.22411,7.02936 4.4174,7.02936 4.50977,7.02936" />
      <path
         inkscape:connector-curvature="0"
         id="path366"
         style="fill:none;stroke:#000000;stroke-width:0.73791856;stroke-linecap:butt;stroke-linejoin:miter;stroke-miterlimit:4;stroke-dasharray:none;stroke-opacity:1"
         d="m 226.27209,262.93555 c -1.5477,6.28377 0.34846,8.66152 0.35912,8.66152" />
      <path
         inkscape:connector-curvature="0"
         id="path368"
         style="fill:none;stroke:#000000;stroke-width:0.73791856;stroke-linecap:butt;stroke-linejoin:miter;stroke-miterlimit:4;stroke-dasharray:none;stroke-opacity:1"
         d="m 237.269,265.64644 c -5.7667,2.41382 -5.41824,6.89572 -5.40458,6.93725" />
      <path
         inkscape:connector-curvature="0"
         id="path370"
         style="fill:none;stroke:#000000;stroke-width:0.73791856;stroke-linecap:butt;stroke-linejoin:miter;stroke-miterlimit:4;stroke-dasharray:none;stroke-opacity:1"
         d="m 242.14008,270.78346 c -6.46033,0.66657 -7.39367,4.40427 -7.39367,4.41411" />
      <path
         inkscape:connector-curvature="0"
         id="path372"
         style="fill:none;stroke:#000000;stroke-width:0.73791856;stroke-linecap:butt;stroke-linejoin:miter;stroke-miterlimit:4;stroke-dasharray:none;stroke-opacity:1"
         d="m 236.36164,280.06754 c 4.17797,-0.90435 7.43356,-1.24926 9.19309,-0.72042" />
      <path
         inkscape:connector-curvature="0"
         id="path374"
         style="fill:none;stroke:#000000;stroke-width:0.73791856;stroke-linecap:butt;stroke-linejoin:miter;stroke-miterlimit:4;stroke-dasharray:none;stroke-opacity:1"
         d="m 235.82704,284.94357 c 3.77515,0 7.58089,-0.0466 9.00918,3.23836" />
      <path
         inkscape:connector-curvature="0"
         id="path376"
         style="fill:none;stroke:#000000;stroke-width:0.73791856;stroke-linecap:butt;stroke-linejoin:miter;stroke-miterlimit:4;stroke-dasharray:none;stroke-opacity:1"
         d="m 239.43055,296.84317 c -0.9877,-3.24246 -2.29602,-6.31112 -6.125,-8.12502" />
      <path
         inkscape:connector-curvature="0"
         id="path378"
         style="fill:none;stroke:#000000;stroke-width:0.73791856;stroke-linecap:butt;stroke-linejoin:miter;stroke-miterlimit:4;stroke-dasharray:none;stroke-opacity:1"
         d="m 229.32816,291.61079 c 5.37781,7.83423 2.53546,9.73342 2.53546,9.73342" />
      <path
         inkscape:connector-curvature="0"
         id="path380"
         style="fill:none;stroke:#000000;stroke-width:0.73791856;stroke-linecap:butt;stroke-linejoin:miter;stroke-miterlimit:4;stroke-dasharray:none;stroke-opacity:1"
         d="m 224.09687,293.23012 c 2.42968,9.76347 -1.97459,11.17699 -1.97459,11.17699" />
      <path
         inkscape:connector-curvature="0"
         id="path382"
         style="fill:none;stroke:#000000;stroke-width:0.73791856;stroke-linecap:butt;stroke-linejoin:miter;stroke-miterlimit:4;stroke-dasharray:none;stroke-opacity:1"
         d="m 224.56449,285.0731 c -0.53348,2.79014 -2.35094,4.94952 -5.60682,6.37782" />
      <path
         inkscape:connector-curvature="0"
         id="path384"
         style="fill:none;stroke:#000000;stroke-width:0.73791856;stroke-linecap:butt;stroke-linejoin:miter;stroke-miterlimit:4;stroke-dasharray:none;stroke-opacity:1"
         d="m 227.38006,284.56941 c 5.73964,2.96178 3.45785,5.37669 3.81613,5.60134" />
      <path
         inkscape:connector-curvature="0"
         id="path386"
         style="fill:none;stroke:#000000;stroke-width:0.73791856;stroke-linecap:butt;stroke-linejoin:miter;stroke-miterlimit:4;stroke-dasharray:none;stroke-opacity:1"
         d="m 229.67501,281.7634 c 6.62076,-2.88033 6.62076,0.21317 6.62076,0.25417" />
      <path
         inkscape:connector-curvature="0"
         id="path388"
         style="fill:none;stroke:#000000;stroke-width:0.73791856;stroke-linecap:butt;stroke-linejoin:miter;stroke-miterlimit:4;stroke-dasharray:none;stroke-opacity:1"
         d="m 229.12866,279.45726 c 0.77482,-1.90955 1.21265,-4.01782 5.14138,-4.08642" />
      <path
         inkscape:connector-curvature="0"
         id="path390"
         style="fill:none;stroke:#000000;stroke-width:0.73791856;stroke-linecap:butt;stroke-linejoin:miter;stroke-miterlimit:4;stroke-dasharray:none;stroke-opacity:1"
         d="m 227.1136,278.44332 c -0.54715,-1.95002 -0.50643,-3.9159 2.29492,-5.85963" />
      <path
         inkscape:connector-curvature="0"
         id="path392"
         style="fill:none;stroke:#000000;stroke-width:0.73791856;stroke-linecap:butt;stroke-linejoin:miter;stroke-miterlimit:4;stroke-dasharray:none;stroke-opacity:1"
         d="m 223.04329,283.54015 c 1.83058,-0.30611 2.50729,-1.55976 2.54801,-3.31381" />
      <path
         inkscape:connector-curvature="0"
         id="path394"
         style="fill:none;stroke:#000000;stroke-width:0.73791856;stroke-linecap:butt;stroke-linejoin:miter;stroke-miterlimit:4;stroke-dasharray:none;stroke-opacity:1"
         d="m 221.13454,274.51568 c 0.79913,2.08394 2.14899,3.64696 4.6292,4.15147" />
      <path
         inkscape:connector-curvature="0"
         id="path396"
         style="fill:none;stroke:#000000;stroke-width:0.73791856;stroke-linecap:butt;stroke-linejoin:miter;stroke-miterlimit:4;stroke-dasharray:none;stroke-opacity:1"
         d="m 219.68004,280.33566 c 1.76334,0.59963 3.61824,0.59963 5.72624,-0.72124" />
      <path
         inkscape:connector-curvature="0"
         id="path398"
         style="fill:#000000;fill-opacity:1;fill-rule:nonzero;stroke:none"
         d="m 205.72162,300.39503 c -0.85818,-1.49499 0.81251,-4.97958 3.73714,-7.77822 2.92052,-2.80546 5.97878,-3.87161 6.84652,-2.3821 0.85408,1.50015 -0.81637,4.99488 -3.73797,7.7976 -2.92052,2.80354 -5.99163,3.86014 -6.84569,2.36272" />
      <path
         inkscape:connector-curvature="0"
         id="path400"
         style="fill:none;stroke:#000000;stroke-width:0.73791856;stroke-linecap:butt;stroke-linejoin:miter;stroke-miterlimit:4;stroke-dasharray:none;stroke-opacity:1"
         d="m 205.72162,300.39503 c -0.85818,-1.49499 0.81251,-4.97958 3.73714,-7.77822 2.92052,-2.80546 5.97878,-3.87161 6.84652,-2.3821 0.85408,1.50015 -0.81637,4.99488 -3.73797,7.7976 -2.92052,2.80354 -5.99163,3.86014 -6.84569,2.36272 z" />
      <path
         inkscape:connector-curvature="0"
         id="path402"
         style="fill:#ffccaa;fill-opacity:1;fill-rule:nonzero;stroke:none"
         d="m 205.12117,299.41798 c -0.76224,0.25416 -5.60682,2.07135 -5.60682,2.07135 -1.22603,0.27057 -2.69504,1.4045 -3.82897,2.93419 -0.65292,1.03034 -1.3463,1.68025 -1.30859,4.87407 l -0.12031,4.97768 -1.59881,-6.2898 c -0.36213,-1.41107 0.0519,-2.91971 0.45148,-4.42915 0.34874,-1.06643 1.04182,-1.86912 2.07054,-2.60048 2.02846,-2.02981 3.57619,-1.79069 5.32232,-1.85546 l 1.27031,-0.63926 3.34879,0.95686 z" />
      <path
         inkscape:connector-curvature="0"
         id="path404"
         style="fill:none;stroke:#000000;stroke-width:0.73791856;stroke-linecap:butt;stroke-linejoin:miter;stroke-miterlimit:4;stroke-dasharray:none;stroke-opacity:1"
         d="m 205.12117,299.41798 c -0.76224,0.25416 -5.60682,2.07135 -5.60682,2.07135 -1.22603,0.27057 -2.69504,1.4045 -3.82897,2.93419 -0.65292,1.03034 -1.3463,1.68025 -1.30859,4.87407 l -0.12031,4.97768 -1.59881,-6.2898 c -0.36213,-1.41107 0.0519,-2.91971 0.45148,-4.42915 0.34874,-1.06643 1.04182,-1.86912 2.07054,-2.60048 2.02846,-2.02981 3.57619,-1.79069 5.32232,-1.85546 l 1.27031,-0.63926 3.34879,0.95686 z" />
      <path
         inkscape:connector-curvature="0"
         id="path406"
         style="fill:#ffccaa;fill-opacity:1;fill-rule:nonzero;stroke:none"
         d="m 201.83852,298.55021 -6.68609,2.24602 c -1.22685,0.25145 -2.56221,0.78547 -3.69614,2.31924 -0.22686,1.26649 -1.38757,2.4018 -2.96262,4.72378 l -5.87219,10.90507 3.88419,-10.94579 c -0.34874,-1.41352 2.10827,-4.32202 2.49743,-5.83065 0.34492,-1.076 1.22605,-2.00195 2.25176,-2.73385 2.04214,-2.02982 4.28321,-1.85547 6.03316,-1.92405 l 2.06645,-0.3195 c 0.64198,0.66878 1.50974,1.16073 2.48405,1.55973" />
      <path
         inkscape:connector-curvature="0"
         id="path408"
         style="fill:none;stroke:#000000;stroke-width:0.73791856;stroke-linecap:butt;stroke-linejoin:miter;stroke-miterlimit:4;stroke-dasharray:none;stroke-opacity:1"
         d="m 201.83852,298.55021 -6.68609,2.24602 c -1.22685,0.25145 -2.56221,0.78547 -3.69614,2.31924 -0.22686,1.26649 -1.38757,2.4018 -2.96262,4.72378 l -5.87219,10.90507 3.88419,-10.94579 c -0.34874,-1.41352 2.10827,-4.32202 2.49743,-5.83065 0.34492,-1.076 1.22605,-2.00195 2.25176,-2.73385 2.04214,-2.02982 4.28321,-1.85547 6.03316,-1.92405 l 2.06645,-0.3195 c 0.64198,0.66878 1.50974,1.16073 2.48405,1.55973 z" />
      <path
         inkscape:connector-curvature="0"
         id="path410"
         style="fill:#ffccaa;fill-opacity:1;fill-rule:nonzero;stroke:none"
         d="m 204.2138,299.22174 c -0.76224,0.25143 -7.59509,1.97406 -7.59509,1.97406 -1.22604,0.25143 -3.32064,2.01533 -4.45457,3.54939 -0.26784,1.22603 -1.96396,3.32474 -2.52451,6.88725 l -2.52093,14.50637 0.86773,-16.78901 c 0.46761,-4.53983 1.90957,-6.22093 2.09378,-6.97797 0.34845,-1.08775 1.42827,-1.90984 2.45671,-2.64777 2.04214,-2.02573 4.78963,-1.42827 6.53878,-1.50318 l 1.86803,-0.10665 c 0.63926,0.65128 2.29601,0.70564 3.27007,1.10687" />
      <path
         inkscape:connector-curvature="0"
         id="path412"
         style="fill:none;stroke:#000000;stroke-width:0.73791856;stroke-linecap:butt;stroke-linejoin:miter;stroke-miterlimit:4;stroke-dasharray:none;stroke-opacity:1"
         d="m 204.2138,299.22174 c -0.76224,0.25143 -7.59509,1.97406 -7.59509,1.97406 -1.22604,0.25143 -3.32064,2.01533 -4.45457,3.54939 -0.26784,1.22603 -1.96396,3.32474 -2.52451,6.88725 l -2.52093,14.50637 0.86773,-16.78901 c 0.46761,-4.53983 1.90957,-6.22093 2.09378,-6.97797 0.34845,-1.08775 1.42827,-1.90984 2.45671,-2.64777 2.04214,-2.02573 4.78963,-1.42827 6.53878,-1.50318 l 1.86803,-0.10665 c 0.63926,0.65128 2.29601,0.70564 3.27007,1.10687 z" />
      <path
         inkscape:connector-curvature="0"
         id="path414"
         style="fill:#ffccaa;fill-opacity:1;fill-rule:nonzero;stroke:none"
         d="m 200.31704,297.67293 c -0.76197,0.25417 -6.24526,1.06533 -6.24526,1.06533 -1.21619,0.26784 -3.77867,1.66741 -4.9126,3.20447 -0.25144,1.21458 -3.80194,2.33375 -6.97907,5.21655 -13.10571,7.00858 -9.03351,5.49857 -13.39597,8.14142 l 11.32842,-10.19721 c 3.37557,-3.34879 6.7137,-3.90769 6.79212,-4.68413 2.28155,-1.38567 2.8287,-1.97462 3.76422,-2.69506 2.03938,-2.01533 4.10966,-1.88141 5.85879,-1.94619 l 1.86913,-0.12031 c 0.63898,0.66714 0.93223,1.6125 1.92022,2.01616" />
      <path
         inkscape:connector-curvature="0"
         id="path416"
         style="fill:none;stroke:#000000;stroke-width:0.73791856;stroke-linecap:butt;stroke-linejoin:miter;stroke-miterlimit:4;stroke-dasharray:none;stroke-opacity:1"
         d="m 200.31704,297.67293 c -0.76197,0.25417 -6.24526,1.06533 -6.24526,1.06533 -1.21619,0.26784 -3.77867,1.66741 -4.9126,3.20447 -0.25144,1.21458 -3.80194,2.33375 -6.97907,5.21655 -13.10571,7.00858 -9.03351,5.49857 -13.39597,8.14142 l 11.32842,-10.19721 c 3.37557,-3.34879 6.7137,-3.90769 6.79212,-4.68413 2.28155,-1.38567 2.8287,-1.97462 3.76422,-2.69506 2.03938,-2.01533 4.10966,-1.88141 5.85879,-1.94619 l 1.86913,-0.12031 c 0.63898,0.66714 0.93223,1.6125 1.92022,2.01616 z" />
      <path
         inkscape:connector-curvature="0"
         id="path418"
         style="fill:#ffccaa;fill-opacity:1;fill-rule:nonzero;stroke:none"
         d="m 203.82625,299.12361 c -0.7617,0.27057 -7.96679,2.03094 -7.96679,2.03094 -1.21647,0.26509 -3.77867,1.66549 -4.9126,3.20419 -0.23506,1.21237 -2.89347,2.33182 -6.08428,5.20615 -5.48328,3.58601 -4.41687,6.92222 -10.07423,10.69982 l 8.00722,-11.98216 c 3.37502,-3.33704 5.81837,-4.6735 5.89708,-5.44693 2.28125,-1.38484 2.84179,-1.97653 3.76392,-2.69695 2.0432,-2.01534 4.10993,-1.88169 5.85963,-1.94264 l 1.86801,-0.12296 c 0.65293,0.66522 2.66828,0.65156 3.64204,1.05057" />
      <path
         inkscape:connector-curvature="0"
         id="path420"
         style="fill:none;stroke:#000000;stroke-width:0.73791856;stroke-linecap:butt;stroke-linejoin:miter;stroke-miterlimit:4;stroke-dasharray:none;stroke-opacity:1"
         d="m 203.82625,299.12361 c -0.7617,0.27057 -7.96679,2.03094 -7.96679,2.03094 -1.21647,0.26509 -3.77867,1.66549 -4.9126,3.20419 -0.23506,1.21237 -2.89347,2.33182 -6.08428,5.20615 -5.48328,3.58601 -4.41687,6.92222 -10.07423,10.69982 l 8.00722,-11.98216 c 3.37502,-3.33704 5.81837,-4.6735 5.89708,-5.44693 2.28125,-1.38484 2.84179,-1.97653 3.76392,-2.69695 2.0432,-2.01534 4.10993,-1.88169 5.85963,-1.94264 l 1.86801,-0.12296 c 0.65293,0.66522 2.66828,0.65156 3.64204,1.05057 z" />
      <path
         inkscape:connector-curvature="0"
         id="path422"
         style="fill:#ffccaa;fill-opacity:1;fill-rule:nonzero;stroke:none"
         d="m 198.88877,296.20612 c -0.76225,0.24868 -6.49805,0.55861 -6.49805,0.55861 -6.04658,1.00112 -10.34454,1.70816 -13.48015,3.2392 -2.71936,1.08748 -5.11104,0.47254 -12.69166,1.39138 l 11.06498,-2.74697 c 4.43133,-3.19492 12.27812,-3.71118 17.81633,-4.40346 l 2.05307,-0.24598 c 0.65564,0.65949 0.76224,1.79233 1.73548,2.20722" />
      <path
         inkscape:connector-curvature="0"
         id="path424"
         style="fill:none;stroke:#000000;stroke-width:0.73791856;stroke-linecap:butt;stroke-linejoin:miter;stroke-miterlimit:4;stroke-dasharray:none;stroke-opacity:1"
         d="m 198.88877,296.20612 c -0.76225,0.24868 -6.49805,0.55861 -6.49805,0.55861 -6.04658,1.00112 -10.34454,1.70816 -13.48015,3.2392 -2.71936,1.08748 -5.11104,0.47254 -12.69166,1.39138 l 11.06498,-2.74697 c 4.43133,-3.19492 12.27812,-3.71118 17.81633,-4.40346 l 2.05307,-0.24598 c 0.65564,0.65949 0.76224,1.79233 1.73548,2.20722 z" />
      <path
         inkscape:connector-curvature="0"
         id="path426"
         style="fill:#ffccaa;fill-opacity:1;fill-rule:nonzero;stroke:none"
         d="m 199.94317,297.60596 c -0.76197,0.25143 -6.49778,0.557 -6.49778,0.557 -6.04684,1.00138 -9.77032,2.41627 -12.92041,3.94924 -2.70952,1.07406 -2.15965,3.84454 -9.75366,4.77049 l 7.75197,-5.93861 c 4.43026,-3.19081 12.09341,-4.59121 17.63135,-5.29906 l 1.86529,-0.11752 c 0.64198,0.6644 0.93552,1.66578 1.92324,2.07902" />
      <path
         inkscape:connector-curvature="0"
         id="path428"
         style="fill:none;stroke:#000000;stroke-width:0.73791856;stroke-linecap:butt;stroke-linejoin:miter;stroke-miterlimit:4;stroke-dasharray:none;stroke-opacity:1"
         d="m 199.94317,297.60596 c -0.76197,0.25143 -6.49778,0.557 -6.49778,0.557 -6.04684,1.00138 -9.77032,2.41627 -12.92041,3.94924 -2.70952,1.07406 -2.15965,3.84454 -9.75366,4.77049 l 7.75197,-5.93861 c 4.43026,-3.19081 12.09341,-4.59121 17.63135,-5.29906 l 1.86529,-0.11752 c 0.64198,0.6644 0.93552,1.66578 1.92324,2.07902 z" />
      <path
         inkscape:connector-curvature="0"
         id="path430"
         style="fill:#ffccaa;fill-opacity:1;fill-rule:nonzero;stroke:none"
         d="m 197.35389,294.3911 c -0.76114,0.25144 -5.25781,0.19951 -5.25781,0.19951 -6.31274,-0.46598 -3.1908,-2.48213 -5.89923,-1.97872 -2.15966,-0.58486 -3.9222,-3.65269 -7.64568,-4.65407 2.24111,0.68108 5.20618,2.31078 6.74022,2.04348 4.43052,-0.89589 3.97601,2.84318 9.52789,2.06645 l 1.82731,-0.65156 c 0.2405,0.69229 0.44084,2.68247 0.7073,2.97574" />
      <path
         inkscape:connector-curvature="0"
         id="path432"
         style="fill:none;stroke:#000000;stroke-width:0.73791856;stroke-linecap:butt;stroke-linejoin:miter;stroke-miterlimit:4;stroke-dasharray:none;stroke-opacity:1"
         d="m 197.35389,294.3911 c -0.76114,0.25144 -5.25781,0.19951 -5.25781,0.19951 -6.31274,-0.46598 -3.1908,-2.48213 -5.89923,-1.97872 -2.15966,-0.58486 -3.9222,-3.65269 -7.64568,-4.65407 2.24111,0.68108 5.20618,2.31078 6.74022,2.04348 4.43052,-0.89589 3.97601,2.84318 9.52789,2.06645 l 1.82731,-0.65156 c 0.2405,0.69229 0.44084,2.68247 0.7073,2.97574 z" />
      <path
         inkscape:connector-curvature="0"
         id="path434"
         style="fill:#ffccaa;fill-opacity:1;fill-rule:nonzero;stroke:none"
         d="m 215.5168,292.44164 c 0,4.24466 -4.2977,7.67271 -9.61016,7.67271 -0.69338,0 -1.37308,-0.0574 -2.02599,-0.17215 -4.32475,-0.74884 -7.56695,-3.81777 -7.56695,-7.50053 0,-0.32142 0,-0.62751 0.0655,-0.93634 0.5742,-3.80191 4.6191,-6.74868 9.52818,-6.74868 5.31246,0 9.61015,3.43871 9.61015,7.68502" />
      <path
         inkscape:connector-curvature="0"
         id="path436"
         style="fill:none;stroke:#000000;stroke-width:0.73791856;stroke-linecap:butt;stroke-linejoin:miter;stroke-miterlimit:4;stroke-dasharray:none;stroke-opacity:1"
         d="m 196.3137,292.43997 c 0,-0.31975 0,-0.62586 0.0685,-0.93003 0.57422,-3.80657 4.61528,-6.75824 9.52791,-6.75824 5.30863,0 9.60632,3.44363 9.60632,7.68827 0,4.24633 -4.29769,7.67272 -9.60632,7.67272 -0.69721,0 -1.37719,-0.0519 -2.02901,-0.16945" />
      <g
         id="g438"
         transform="matrix(3.4162892,0,0,-3.4162892,-1223.9789,2029.1639)">
        <g
           id="g440">
          <g
             id="g446">
            <path
               inkscape:connector-curvature="0"
               id="path454"
               style="fill:url(#radialGradient448);fill-rule:evenodd;stroke:none"
               d="m 417.401,508.3529 c 0,-0.4584 0.3319,-0.8311 0.7461,-0.8311 l 0,0 c 0.4138,0 0.7458,0.3727 0.7458,0.8311 0,0.4566 -0.332,0.828 -0.7458,0.828 -0.4142,0 -0.7461,-0.3714 -0.7461,-0.828" />
          </g>
        </g>
      </g>
      <path
         inkscape:connector-curvature="0"
         id="path456"
         style="fill:none;stroke:#000000;stroke-width:0.73791856;stroke-linecap:butt;stroke-linejoin:miter;stroke-miterlimit:4;stroke-dasharray:none;stroke-opacity:1"
         d="m 207.08321,292.48234 c 0,1.55703 -1.13503,2.83963 -2.54855,2.83963 -1.41517,0 -2.54911,-1.2826 -2.54911,-2.83963 0,-1.56192 1.13394,-2.82867 2.54911,-2.82867 1.41352,0 2.54855,1.26675 2.54855,2.82867 z" />
      <path
         inkscape:connector-curvature="0"
         id="path458"
         style="fill:#000000;fill-opacity:1;fill-rule:nonzero;stroke:none"
         d="m 205.24144,293.0131 c 0,0.96257 -0.25145,1.7352 -0.54745,1.7352 -0.30664,0 -0.54578,-0.77263 -0.54578,-1.7352 0,-0.95791 0.23777,-1.73164 0.54578,-1.73164 0.29462,0 0.54745,0.77373 0.54745,1.73164" />
      <path
         inkscape:connector-curvature="0"
         id="path460"
         style="fill:none;stroke:#000000;stroke-width:0.73791856;stroke-linecap:butt;stroke-linejoin:miter;stroke-miterlimit:4;stroke-dasharray:none;stroke-opacity:1"
         d="m 205.24144,293.0131 c 0,0.96257 -0.25145,1.7352 -0.54745,1.7352 -0.30664,0 -0.54578,-0.77263 -0.54578,-1.7352 0,-0.95791 0.23777,-1.73164 0.54578,-1.73164 0.29462,0 0.54745,0.77373 0.54745,1.73164 z" />
      <path
         inkscape:connector-curvature="0"
         id="path462"
         style="fill:none;stroke:#000000;stroke-width:0.73791856;stroke-linecap:butt;stroke-linejoin:miter;stroke-miterlimit:4;stroke-dasharray:none;stroke-opacity:1"
         d="m 196.48725,294.4843 c 0.0792,-0.0464 0.13118,-0.0464 0.21589,-0.0464 0,0 0.0273,0.0273 0.0382,0 0,0 0,-0.0273 0.0273,-0.0273 l 0.041,0 c 0.0273,0 0.0273,-0.0273 0.0273,-0.0273 0,-0.0273 0.0273,0 0.0273,0 l 0.041,-0.041 c 0.0273,0 0.0685,0.0273 0.093,0 0,0 0,-0.03 0.0273,-0.03 0.0273,-0.0273 0.0547,0.0273 0.0685,0 0,-0.0273 0,-0.0273 0,-0.041 l 0.13118,0 c 0.041,0 0.0793,0 0.12031,-0.0273 0,0 0.0273,-0.0273 0.041,-0.0273 0.0273,-0.0273 0.14763,0 0.16407,0 l 0,-0.041 c 0,0 0,0.0273 0.0273,0 0.082,-0.0464 0,-0.03 0.0685,-0.03 0.0273,0 0.0273,-0.0273 0.0273,0 0,0 0,0 -0.0273,0" />
      <path
         inkscape:connector-curvature="0"
         id="path464"
         style="fill:none;stroke:#000000;stroke-width:0.73791856;stroke-linecap:butt;stroke-linejoin:miter;stroke-miterlimit:4;stroke-dasharray:none;stroke-opacity:1"
         d="m 197.06036,295.58817 c 0,0 0.22684,0.0273 0.25418,0 0,0 0,-0.0273 0.0273,-0.0273 0,0 0.093,0 0.093,0 0.0273,0 0,-0.0273 0,-0.0273 0.0273,-0.0273 0.12296,0 0.13398,0 0,-0.0273 0,-0.0273 0,-0.0382 l 0.0273,0 c 0.0273,0 0.0273,-0.0273 0.041,-0.0273 0.0273,-0.0273 0.0685,0 0.093,0 0.0273,-0.0273 0.041,-0.0301 0.0685,-0.0438 l 0.12031,0 0.041,0 0.0273,0 c 0,0 -0.0273,0 -0.0273,0 l -0.13398,0" />
      <path
         inkscape:connector-curvature="0"
         id="path466"
         style="fill:none;stroke:#000000;stroke-width:0.73791856;stroke-linecap:butt;stroke-linejoin:miter;stroke-miterlimit:4;stroke-dasharray:none;stroke-opacity:1"
         d="m 198.80924,297.69616 c 0.093,0.0737 0.10665,0.0737 0.18867,0.0737 0,0 0.0273,0 0.0382,0 0,0 0,0.0273 0,0.0273 0,0.0273 0.0821,0 0.0956,0 0.0273,0.0273 0.0273,0.0273 0.0273,0.0356 0,0 0.0273,0 0.0382,0 0,0 -0.0273,0.0273 0,0.0273 0.14763,0 0,-0.0273 0.0956,0.0273 0.0273,0.0273 0.0273,0 0.0273,0 0.0273,0.0273 0,0.0273 0,0.041 0.0273,0 0.16121,0 0.16121,0 0,0 0,0.0273 0,0.0273 0.041,0.082 0.041,0 0.041,0.0655 0.041,0.041 0.0685,0.0956 0.12031,0.12031 0,0.0273 0.17485,0 0.20227,0" />
      <path
         inkscape:connector-curvature="0"
         id="path468"
         style="fill:none;stroke:#000000;stroke-width:0.73791856;stroke-linecap:butt;stroke-linejoin:miter;stroke-miterlimit:4;stroke-dasharray:none;stroke-opacity:1"
         d="m 202.2247,299.53904 0.34846,0 0.0273,0 c 0,0.0273 0,0.0273 0,0.041 0.0711,0.13398 0,-0.041 0.0711,0.03 0,0 0,0.0273 0,0.0382 0,0 0.0765,0 0.09,0 0,0 0.0273,0.0273 0.041,0.0273 0.041,0.0273 0.0548,-0.041 0.0548,0.0273" />
      <path
         inkscape:connector-curvature="0"
         id="path470"
         style="fill:none;stroke:#000000;stroke-width:0.73791856;stroke-linecap:butt;stroke-linejoin:miter;stroke-miterlimit:4;stroke-dasharray:none;stroke-opacity:1"
         d="m 203.69288,299.90226 0.34873,0 c 0,0 0.0273,0 0.0273,0 0.0273,0 0,0.0273 0,0.0273 0.0273,0.0273 0.13398,-0.0273 0.16119,0 0.0273,0.0273 0.041,0.0273 0.0685,0.0356 0.0273,0 0.0519,-0.0273 0.0655,0 0,0 -0.0273,0 0,0.0273 0,0 0.082,0 0.0956,0 0.0273,0 0.0273,0.0273 0.0273,0.0273 0,0.0273 0.17483,0 0.20223,0 l 0.27988,0 0.0273,0 c 0,0.0273 -0.041,0 -0.0273,0 l 0.093,0 0.041,0 c 0,0.0273 -0.0519,0 -0.041,0 l 0.0956,0 c 0.0273,0.0273 0.0519,0.03 0.0655,0.0438 0.0273,0 0.12031,-0.0273 0.13397,0 0,0 0,0.0273 0,0.0273 l 0.16121,0" />
      <path
         inkscape:connector-curvature="0"
         id="path472"
         style="fill:none;stroke:#000000;stroke-width:0.73791856;stroke-linecap:butt;stroke-linejoin:miter;stroke-miterlimit:4;stroke-dasharray:none;stroke-opacity:1"
         d="m 199.22301,297.82981 c 0.0548,0.0273 0.11752,0.0548 0.17483,0.0956 0.0273,0 0.041,0 0.0519,0 0.0273,0 0.0273,0.0273 0.041,0.0438 0.0273,0 0.0685,0 0.093,0 0,0 0.0273,-0.0273 0.041,0 0.0273,0 0.041,0.0273 0.0574,0.0356 0,0.0273 -0.0273,0.041 0,0.0545 0.0273,0.0273 0.0466,0 0.0737,0 0.0273,0 0.0273,0.0273 0.0548,0.041 0.0273,0.0273 0.0273,-0.0273 0.041,0 0,0.0273 -0.0273,0.0382 0,0.0382 0,0 0.0382,-0.0273 0.0382,0 0,0.0273 -0.0519,0 -0.0382,0 l 0.26511,0 c 0.0273,0 0.0519,-0.0273 0.0519,0 0,0.0273 -0.0382,0 -0.0519,0" />
    </g>
  </g>
</svg>
